<mxfile host="app.diagrams.net" agent="Mozilla/5.0 (Macintosh; Intel Mac OS X 10_15_7) AppleWebKit/605.1.15 (KHTML, like Gecko) Version/18.1 Safari/605.1.15" version="24.8.3">
  <diagram name="Page-1" id="7iPxPgaWAinNxmWODJ0a">
    <mxGraphModel dx="995" dy="643" grid="1" gridSize="10" guides="1" tooltips="1" connect="1" arrows="1" fold="1" page="1" pageScale="1" pageWidth="827" pageHeight="1169" math="0" shadow="0">
      <root>
        <mxCell id="0" />
        <mxCell id="1" parent="0" />
        <mxCell id="ZeDhrGZ1cyevb3TE8War-3" value="DB" style="rounded=1;whiteSpace=wrap;html=1;verticalAlign=bottom;fontSize=16;fillColor=none;strokeColor=#3399FF;strokeWidth=2;" vertex="1" parent="1">
          <mxGeometry x="2401.5" y="560" width="100" height="110" as="geometry" />
        </mxCell>
        <mxCell id="ZeDhrGZ1cyevb3TE8War-4" value="on app install&amp;nbsp;&lt;div&gt;or sig up&lt;/div&gt;" style="edgeStyle=orthogonalEdgeStyle;rounded=0;orthogonalLoop=1;jettySize=auto;html=1;entryX=0.05;entryY=0.5;entryDx=0;entryDy=0;entryPerimeter=0;fontSize=16;verticalAlign=bottom;" edge="1" parent="1" source="ZeDhrGZ1cyevb3TE8War-5" target="ZeDhrGZ1cyevb3TE8War-42">
          <mxGeometry relative="1" as="geometry">
            <mxPoint x="1860" y="615" as="targetPoint" />
          </mxGeometry>
        </mxCell>
        <mxCell id="ZeDhrGZ1cyevb3TE8War-5" value="User" style="rounded=1;whiteSpace=wrap;html=1;verticalAlign=top;fontSize=16;fillColor=none;strokeColor=#3399FF;strokeWidth=2;" vertex="1" parent="1">
          <mxGeometry x="1680" y="520" width="100" height="190" as="geometry" />
        </mxCell>
        <mxCell id="ZeDhrGZ1cyevb3TE8War-6" value="Third Party Services" style="rounded=1;whiteSpace=wrap;html=1;dashed=1;dashPattern=8 8;verticalAlign=bottom;fontSize=16;" vertex="1" parent="1">
          <mxGeometry x="1070" y="320" width="130" height="740" as="geometry" />
        </mxCell>
        <mxCell id="ZeDhrGZ1cyevb3TE8War-7" value="APNs" style="html=1;verticalLabelPosition=middle;align=center;labelBackgroundColor=#ffffff;verticalAlign=bottom;strokeWidth=2;strokeColor=#000000;shadow=0;dashed=0;shape=mxgraph.ios7.icons.cloud;labelPosition=center;fontSize=16;" vertex="1" parent="1">
          <mxGeometry x="440" y="330" width="106" height="60" as="geometry" />
        </mxCell>
        <mxCell id="ZeDhrGZ1cyevb3TE8War-8" value="" style="edgeStyle=orthogonalEdgeStyle;rounded=0;orthogonalLoop=1;jettySize=auto;html=1;" edge="1" parent="1" source="ZeDhrGZ1cyevb3TE8War-9" target="ZeDhrGZ1cyevb3TE8War-7">
          <mxGeometry relative="1" as="geometry" />
        </mxCell>
        <mxCell id="ZeDhrGZ1cyevb3TE8War-9" value="Provider" style="ellipse;whiteSpace=wrap;html=1;" vertex="1" parent="1">
          <mxGeometry x="230" y="320" width="80" height="80" as="geometry" />
        </mxCell>
        <mxCell id="ZeDhrGZ1cyevb3TE8War-10" value="iOS" style="verticalLabelPosition=bottom;html=1;verticalAlign=top;align=center;strokeColor=none;fillColor=#000000;shape=mxgraph.azure.mobile;pointerEvents=1;" vertex="1" parent="1">
          <mxGeometry x="680" y="335" width="35" height="50" as="geometry" />
        </mxCell>
        <mxCell id="ZeDhrGZ1cyevb3TE8War-11" style="edgeStyle=orthogonalEdgeStyle;rounded=0;orthogonalLoop=1;jettySize=auto;html=1;entryX=0;entryY=0.5;entryDx=0;entryDy=0;entryPerimeter=0;" edge="1" parent="1" source="ZeDhrGZ1cyevb3TE8War-7" target="ZeDhrGZ1cyevb3TE8War-10">
          <mxGeometry relative="1" as="geometry" />
        </mxCell>
        <mxCell id="ZeDhrGZ1cyevb3TE8War-12" value="" style="edgeStyle=orthogonalEdgeStyle;rounded=0;orthogonalLoop=1;jettySize=auto;html=1;entryX=0;entryY=0.5;entryDx=0;entryDy=0;" edge="1" parent="1" source="ZeDhrGZ1cyevb3TE8War-13" target="ZeDhrGZ1cyevb3TE8War-16">
          <mxGeometry relative="1" as="geometry">
            <mxPoint x="410" y="521" as="targetPoint" />
          </mxGeometry>
        </mxCell>
        <mxCell id="ZeDhrGZ1cyevb3TE8War-13" value="Provider" style="ellipse;whiteSpace=wrap;html=1;" vertex="1" parent="1">
          <mxGeometry x="230" y="481" width="80" height="80" as="geometry" />
        </mxCell>
        <mxCell id="ZeDhrGZ1cyevb3TE8War-14" value="Android" style="verticalLabelPosition=bottom;html=1;verticalAlign=top;align=center;strokeColor=none;fillColor=#000000;shape=mxgraph.azure.mobile;pointerEvents=1;" vertex="1" parent="1">
          <mxGeometry x="680" y="496" width="35" height="50" as="geometry" />
        </mxCell>
        <mxCell id="ZeDhrGZ1cyevb3TE8War-15" style="edgeStyle=orthogonalEdgeStyle;rounded=0;orthogonalLoop=1;jettySize=auto;html=1;entryX=0;entryY=0.5;entryDx=0;entryDy=0;entryPerimeter=0;exitX=1;exitY=0.5;exitDx=0;exitDy=0;" edge="1" parent="1" source="ZeDhrGZ1cyevb3TE8War-16" target="ZeDhrGZ1cyevb3TE8War-14">
          <mxGeometry relative="1" as="geometry">
            <mxPoint x="546" y="521" as="sourcePoint" />
          </mxGeometry>
        </mxCell>
        <mxCell id="ZeDhrGZ1cyevb3TE8War-16" value="FCM" style="shape=image;html=1;verticalAlign=top;verticalLabelPosition=bottom;labelBackgroundColor=#ffffff;imageAspect=0;aspect=fixed;image=https://cdn1.iconfinder.com/data/icons/ionicons-fill-vol-2/512/logo-firebase-128.png;fontSize=16;" vertex="1" parent="1">
          <mxGeometry x="429" y="457" width="128" height="128" as="geometry" />
        </mxCell>
        <mxCell id="ZeDhrGZ1cyevb3TE8War-17" value="" style="edgeStyle=orthogonalEdgeStyle;rounded=0;orthogonalLoop=1;jettySize=auto;html=1;" edge="1" parent="1" source="ZeDhrGZ1cyevb3TE8War-18" target="ZeDhrGZ1cyevb3TE8War-21">
          <mxGeometry relative="1" as="geometry">
            <mxPoint x="429" y="724" as="targetPoint" />
          </mxGeometry>
        </mxCell>
        <mxCell id="ZeDhrGZ1cyevb3TE8War-18" value="Provider" style="ellipse;whiteSpace=wrap;html=1;" vertex="1" parent="1">
          <mxGeometry x="230" y="684" width="80" height="80" as="geometry" />
        </mxCell>
        <mxCell id="ZeDhrGZ1cyevb3TE8War-19" value="Android" style="verticalLabelPosition=bottom;html=1;verticalAlign=top;align=center;strokeColor=none;fillColor=#000000;shape=mxgraph.azure.mobile;pointerEvents=1;" vertex="1" parent="1">
          <mxGeometry x="680" y="699" width="35" height="50" as="geometry" />
        </mxCell>
        <mxCell id="ZeDhrGZ1cyevb3TE8War-20" style="edgeStyle=orthogonalEdgeStyle;rounded=0;orthogonalLoop=1;jettySize=auto;html=1;entryX=0;entryY=0.5;entryDx=0;entryDy=0;entryPerimeter=0;" edge="1" parent="1" source="ZeDhrGZ1cyevb3TE8War-21" target="ZeDhrGZ1cyevb3TE8War-19">
          <mxGeometry relative="1" as="geometry">
            <mxPoint x="557" y="724" as="sourcePoint" />
          </mxGeometry>
        </mxCell>
        <mxCell id="ZeDhrGZ1cyevb3TE8War-21" value="SMS Service" style="dashed=0;outlineConnect=0;html=1;align=center;labelPosition=center;verticalLabelPosition=bottom;verticalAlign=top;shape=mxgraph.webicons.sms;fillColor=#000000;gradientColor=none;fontSize=16;" vertex="1" parent="1">
          <mxGeometry x="443.6" y="672.8" width="102.4" height="102.4" as="geometry" />
        </mxCell>
        <mxCell id="ZeDhrGZ1cyevb3TE8War-22" value="Email Service" style="sketch=0;outlineConnect=0;fontColor=#232F3E;gradientColor=none;fillColor=#000000;strokeColor=none;dashed=0;verticalLabelPosition=bottom;verticalAlign=top;align=center;html=1;fontSize=16;fontStyle=0;aspect=fixed;shape=mxgraph.aws4.email;" vertex="1" parent="1">
          <mxGeometry x="455.8" y="905.5" width="78" height="69" as="geometry" />
        </mxCell>
        <mxCell id="ZeDhrGZ1cyevb3TE8War-23" value="" style="edgeStyle=orthogonalEdgeStyle;rounded=0;orthogonalLoop=1;jettySize=auto;html=1;" edge="1" parent="1" source="ZeDhrGZ1cyevb3TE8War-24" target="ZeDhrGZ1cyevb3TE8War-22">
          <mxGeometry relative="1" as="geometry">
            <mxPoint x="443.5999999999999" y="940" as="targetPoint" />
          </mxGeometry>
        </mxCell>
        <mxCell id="ZeDhrGZ1cyevb3TE8War-24" value="Provider" style="ellipse;whiteSpace=wrap;html=1;" vertex="1" parent="1">
          <mxGeometry x="230" y="900" width="80" height="80" as="geometry" />
        </mxCell>
        <mxCell id="ZeDhrGZ1cyevb3TE8War-25" style="edgeStyle=orthogonalEdgeStyle;rounded=0;orthogonalLoop=1;jettySize=auto;html=1;entryX=0;entryY=0.5;entryDx=0;entryDy=0;entryPerimeter=0;" edge="1" parent="1" source="ZeDhrGZ1cyevb3TE8War-22">
          <mxGeometry relative="1" as="geometry">
            <mxPoint x="546" y="940" as="sourcePoint" />
            <mxPoint x="680" y="940" as="targetPoint" />
          </mxGeometry>
        </mxCell>
        <mxCell id="ZeDhrGZ1cyevb3TE8War-26" value="APNs" style="html=1;verticalLabelPosition=middle;align=center;labelBackgroundColor=#ffffff;verticalAlign=bottom;strokeWidth=2;strokeColor=#000000;shadow=0;dashed=0;shape=mxgraph.ios7.icons.cloud;labelPosition=center;fontSize=16;" vertex="1" parent="1">
          <mxGeometry x="1081" y="330" width="106" height="60" as="geometry" />
        </mxCell>
        <mxCell id="ZeDhrGZ1cyevb3TE8War-27" value="FCM" style="shape=image;html=1;verticalAlign=top;verticalLabelPosition=bottom;labelBackgroundColor=#ffffff;imageAspect=0;aspect=fixed;image=https://cdn1.iconfinder.com/data/icons/ionicons-fill-vol-2/512/logo-firebase-128.png;fontSize=16;" vertex="1" parent="1">
          <mxGeometry x="1070" y="457" width="128" height="128" as="geometry" />
        </mxCell>
        <mxCell id="ZeDhrGZ1cyevb3TE8War-28" value="SMS Service" style="dashed=0;outlineConnect=0;html=1;align=center;labelPosition=center;verticalLabelPosition=bottom;verticalAlign=top;shape=mxgraph.webicons.sms;fillColor=#000000;gradientColor=none;fontSize=16;" vertex="1" parent="1">
          <mxGeometry x="1084.6" y="672.8" width="102.4" height="102.4" as="geometry" />
        </mxCell>
        <mxCell id="ZeDhrGZ1cyevb3TE8War-29" value="Email Service" style="sketch=0;outlineConnect=0;fontColor=#232F3E;gradientColor=none;fillColor=#000000;strokeColor=none;dashed=0;verticalLabelPosition=bottom;verticalAlign=top;align=center;html=1;fontSize=16;fontStyle=0;aspect=fixed;shape=mxgraph.aws4.email;" vertex="1" parent="1">
          <mxGeometry x="1096.8" y="905.5" width="78" height="69" as="geometry" />
        </mxCell>
        <mxCell id="ZeDhrGZ1cyevb3TE8War-30" value="iOS" style="verticalLabelPosition=bottom;html=1;verticalAlign=top;align=center;strokeColor=none;fillColor=#000000;shape=mxgraph.azure.mobile;pointerEvents=1;" vertex="1" parent="1">
          <mxGeometry x="1333" y="335" width="35" height="50" as="geometry" />
        </mxCell>
        <mxCell id="ZeDhrGZ1cyevb3TE8War-31" style="edgeStyle=orthogonalEdgeStyle;rounded=0;orthogonalLoop=1;jettySize=auto;html=1;entryX=0;entryY=0.5;entryDx=0;entryDy=0;entryPerimeter=0;exitX=1.026;exitY=0.053;exitDx=0;exitDy=0;exitPerimeter=0;" edge="1" parent="1" source="ZeDhrGZ1cyevb3TE8War-6" target="ZeDhrGZ1cyevb3TE8War-30">
          <mxGeometry relative="1" as="geometry">
            <mxPoint x="1220" y="340" as="sourcePoint" />
          </mxGeometry>
        </mxCell>
        <mxCell id="ZeDhrGZ1cyevb3TE8War-32" value="Android" style="verticalLabelPosition=bottom;html=1;verticalAlign=top;align=center;strokeColor=none;fillColor=#000000;shape=mxgraph.azure.mobile;pointerEvents=1;" vertex="1" parent="1">
          <mxGeometry x="1333" y="496" width="35" height="50" as="geometry" />
        </mxCell>
        <mxCell id="ZeDhrGZ1cyevb3TE8War-33" style="rounded=0;orthogonalLoop=1;jettySize=auto;html=1;entryX=0;entryY=0.5;entryDx=0;entryDy=0;entryPerimeter=0;exitX=1.013;exitY=0.272;exitDx=0;exitDy=0;exitPerimeter=0;" edge="1" parent="1" source="ZeDhrGZ1cyevb3TE8War-6" target="ZeDhrGZ1cyevb3TE8War-32">
          <mxGeometry relative="1" as="geometry">
            <mxPoint x="1210" y="521" as="sourcePoint" />
          </mxGeometry>
        </mxCell>
        <mxCell id="ZeDhrGZ1cyevb3TE8War-34" value="Android" style="verticalLabelPosition=bottom;html=1;verticalAlign=top;align=center;strokeColor=none;fillColor=#000000;shape=mxgraph.azure.mobile;pointerEvents=1;" vertex="1" parent="1">
          <mxGeometry x="1333" y="699" width="35" height="50" as="geometry" />
        </mxCell>
        <mxCell id="ZeDhrGZ1cyevb3TE8War-35" style="edgeStyle=orthogonalEdgeStyle;rounded=0;orthogonalLoop=1;jettySize=auto;html=1;entryX=0;entryY=0.5;entryDx=0;entryDy=0;entryPerimeter=0;" edge="1" parent="1" target="ZeDhrGZ1cyevb3TE8War-34">
          <mxGeometry relative="1" as="geometry">
            <mxPoint x="1199" y="724" as="sourcePoint" />
          </mxGeometry>
        </mxCell>
        <mxCell id="ZeDhrGZ1cyevb3TE8War-36" style="edgeStyle=orthogonalEdgeStyle;rounded=0;orthogonalLoop=1;jettySize=auto;html=1;" edge="1" parent="1" target="ZeDhrGZ1cyevb3TE8War-38">
          <mxGeometry relative="1" as="geometry">
            <mxPoint x="1201" y="940" as="sourcePoint" />
            <mxPoint x="1333" y="940" as="targetPoint" />
          </mxGeometry>
        </mxCell>
        <mxCell id="ZeDhrGZ1cyevb3TE8War-37" value="" style="sketch=0;pointerEvents=1;shadow=0;dashed=0;html=1;strokeColor=none;fillColor=#000000;labelPosition=center;verticalLabelPosition=bottom;verticalAlign=top;align=center;outlineConnect=0;shape=mxgraph.veeam2.laptop;" vertex="1" parent="1">
          <mxGeometry x="680" y="916" width="70" height="48" as="geometry" />
        </mxCell>
        <mxCell id="ZeDhrGZ1cyevb3TE8War-38" value="" style="sketch=0;pointerEvents=1;shadow=0;dashed=0;html=1;strokeColor=none;fillColor=#000000;labelPosition=center;verticalLabelPosition=bottom;verticalAlign=top;align=center;outlineConnect=0;shape=mxgraph.veeam2.laptop;" vertex="1" parent="1">
          <mxGeometry x="1315.5" y="916" width="70" height="48" as="geometry" />
        </mxCell>
        <mxCell id="ZeDhrGZ1cyevb3TE8War-39" value="" style="verticalLabelPosition=bottom;html=1;verticalAlign=top;align=center;strokeColor=none;fillColor=#000000;shape=mxgraph.azure.mobile;pointerEvents=1;" vertex="1" parent="1">
          <mxGeometry x="1710" y="630" width="40" height="50" as="geometry" />
        </mxCell>
        <mxCell id="ZeDhrGZ1cyevb3TE8War-40" value="" style="sketch=0;pointerEvents=1;shadow=0;dashed=0;html=1;strokeColor=none;fillColor=#000000;labelPosition=center;verticalLabelPosition=bottom;verticalAlign=top;align=center;outlineConnect=0;shape=mxgraph.veeam2.laptop;" vertex="1" parent="1">
          <mxGeometry x="1690" y="560" width="80" height="50" as="geometry" />
        </mxCell>
        <mxCell id="ZeDhrGZ1cyevb3TE8War-41" style="edgeStyle=orthogonalEdgeStyle;rounded=0;orthogonalLoop=1;jettySize=auto;html=1;entryX=0;entryY=0.5;entryDx=0;entryDy=0;" edge="1" parent="1" source="ZeDhrGZ1cyevb3TE8War-42" target="ZeDhrGZ1cyevb3TE8War-45">
          <mxGeometry relative="1" as="geometry" />
        </mxCell>
        <mxCell id="ZeDhrGZ1cyevb3TE8War-42" value="Load balancer" style="verticalLabelPosition=bottom;html=1;verticalAlign=top;align=center;strokeColor=none;fillColor=#00BEF2;shape=mxgraph.azure.azure_load_balancer;fontSize=16;" vertex="1" parent="1">
          <mxGeometry x="1940" y="585" width="80" height="60" as="geometry" />
        </mxCell>
        <mxCell id="ZeDhrGZ1cyevb3TE8War-43" value="" style="sketch=0;pointerEvents=1;shadow=0;dashed=0;html=1;strokeColor=none;fillColor=#505050;labelPosition=center;verticalLabelPosition=bottom;verticalAlign=top;outlineConnect=0;align=center;shape=mxgraph.office.servers.server_farm;fillColor=#7FBA42;" vertex="1" parent="1">
          <mxGeometry x="2160" y="570" width="70" height="80" as="geometry" />
        </mxCell>
        <mxCell id="ZeDhrGZ1cyevb3TE8War-44" value="store contact info" style="edgeStyle=orthogonalEdgeStyle;rounded=0;orthogonalLoop=1;jettySize=auto;html=1;entryX=0;entryY=0.5;entryDx=0;entryDy=0;verticalAlign=bottom;fontSize=16;" edge="1" parent="1" source="ZeDhrGZ1cyevb3TE8War-45" target="ZeDhrGZ1cyevb3TE8War-3">
          <mxGeometry relative="1" as="geometry">
            <mxPoint x="2370" y="615" as="targetPoint" />
          </mxGeometry>
        </mxCell>
        <mxCell id="ZeDhrGZ1cyevb3TE8War-45" value="API Servers" style="rounded=1;whiteSpace=wrap;html=1;verticalAlign=bottom;fontSize=16;fillColor=none;strokeColor=#3399FF;strokeWidth=2;dashed=1;" vertex="1" parent="1">
          <mxGeometry x="2142.5" y="550" width="105" height="130" as="geometry" />
        </mxCell>
        <mxCell id="ZeDhrGZ1cyevb3TE8War-46" value="" style="sketch=0;shadow=0;dashed=0;html=1;strokeColor=none;fillColor=#3399FF;labelPosition=center;verticalLabelPosition=bottom;verticalAlign=top;outlineConnect=0;align=center;shape=mxgraph.office.databases.database_availability_group;" vertex="1" parent="1">
          <mxGeometry x="2422" y="581" width="59" height="59" as="geometry" />
        </mxCell>
        <mxCell id="ZeDhrGZ1cyevb3TE8War-47" value="Third Party Services" style="rounded=1;whiteSpace=wrap;html=1;dashed=1;dashPattern=8 8;verticalAlign=bottom;fontSize=16;" vertex="1" parent="1">
          <mxGeometry x="3330" y="320" width="130" height="740" as="geometry" />
        </mxCell>
        <mxCell id="ZeDhrGZ1cyevb3TE8War-48" value="APNs" style="html=1;verticalLabelPosition=middle;align=center;labelBackgroundColor=#ffffff;verticalAlign=bottom;strokeWidth=2;strokeColor=#000000;shadow=0;dashed=0;shape=mxgraph.ios7.icons.cloud;labelPosition=center;fontSize=16;" vertex="1" parent="1">
          <mxGeometry x="3341" y="330" width="106" height="60" as="geometry" />
        </mxCell>
        <mxCell id="ZeDhrGZ1cyevb3TE8War-49" value="FCM" style="shape=image;html=1;verticalAlign=top;verticalLabelPosition=bottom;labelBackgroundColor=#ffffff;imageAspect=0;aspect=fixed;image=https://cdn1.iconfinder.com/data/icons/ionicons-fill-vol-2/512/logo-firebase-128.png;fontSize=16;" vertex="1" parent="1">
          <mxGeometry x="3330" y="457" width="128" height="128" as="geometry" />
        </mxCell>
        <mxCell id="ZeDhrGZ1cyevb3TE8War-50" value="SMS Service" style="dashed=0;outlineConnect=0;html=1;align=center;labelPosition=center;verticalLabelPosition=bottom;verticalAlign=top;shape=mxgraph.webicons.sms;fillColor=#000000;gradientColor=none;fontSize=16;" vertex="1" parent="1">
          <mxGeometry x="3344.6" y="672.8" width="102.4" height="102.4" as="geometry" />
        </mxCell>
        <mxCell id="ZeDhrGZ1cyevb3TE8War-51" value="Email Service" style="sketch=0;outlineConnect=0;fontColor=#232F3E;gradientColor=none;fillColor=#000000;strokeColor=none;dashed=0;verticalLabelPosition=bottom;verticalAlign=top;align=center;html=1;fontSize=16;fontStyle=0;aspect=fixed;shape=mxgraph.aws4.email;" vertex="1" parent="1">
          <mxGeometry x="3356.8" y="905.5" width="78" height="69" as="geometry" />
        </mxCell>
        <mxCell id="ZeDhrGZ1cyevb3TE8War-52" value="iOS" style="verticalLabelPosition=bottom;html=1;verticalAlign=top;align=center;strokeColor=none;fillColor=#000000;shape=mxgraph.azure.mobile;pointerEvents=1;" vertex="1" parent="1">
          <mxGeometry x="3593" y="335" width="35" height="50" as="geometry" />
        </mxCell>
        <mxCell id="ZeDhrGZ1cyevb3TE8War-53" style="edgeStyle=orthogonalEdgeStyle;rounded=0;orthogonalLoop=1;jettySize=auto;html=1;entryX=0;entryY=0.5;entryDx=0;entryDy=0;entryPerimeter=0;exitX=1.026;exitY=0.053;exitDx=0;exitDy=0;exitPerimeter=0;" edge="1" parent="1" source="ZeDhrGZ1cyevb3TE8War-47" target="ZeDhrGZ1cyevb3TE8War-52">
          <mxGeometry relative="1" as="geometry">
            <mxPoint x="3480" y="340" as="sourcePoint" />
          </mxGeometry>
        </mxCell>
        <mxCell id="ZeDhrGZ1cyevb3TE8War-54" value="Android" style="verticalLabelPosition=bottom;html=1;verticalAlign=top;align=center;strokeColor=none;fillColor=#000000;shape=mxgraph.azure.mobile;pointerEvents=1;" vertex="1" parent="1">
          <mxGeometry x="3593" y="496" width="35" height="50" as="geometry" />
        </mxCell>
        <mxCell id="ZeDhrGZ1cyevb3TE8War-55" style="rounded=0;orthogonalLoop=1;jettySize=auto;html=1;entryX=0;entryY=0.5;entryDx=0;entryDy=0;entryPerimeter=0;exitX=1.013;exitY=0.272;exitDx=0;exitDy=0;exitPerimeter=0;" edge="1" parent="1" source="ZeDhrGZ1cyevb3TE8War-47" target="ZeDhrGZ1cyevb3TE8War-54">
          <mxGeometry relative="1" as="geometry">
            <mxPoint x="3470" y="521" as="sourcePoint" />
          </mxGeometry>
        </mxCell>
        <mxCell id="ZeDhrGZ1cyevb3TE8War-56" value="Android" style="verticalLabelPosition=bottom;html=1;verticalAlign=top;align=center;strokeColor=none;fillColor=#000000;shape=mxgraph.azure.mobile;pointerEvents=1;" vertex="1" parent="1">
          <mxGeometry x="3593" y="699" width="35" height="50" as="geometry" />
        </mxCell>
        <mxCell id="ZeDhrGZ1cyevb3TE8War-57" style="edgeStyle=orthogonalEdgeStyle;rounded=0;orthogonalLoop=1;jettySize=auto;html=1;entryX=0;entryY=0.5;entryDx=0;entryDy=0;entryPerimeter=0;" edge="1" parent="1" target="ZeDhrGZ1cyevb3TE8War-56">
          <mxGeometry relative="1" as="geometry">
            <mxPoint x="3459" y="724" as="sourcePoint" />
          </mxGeometry>
        </mxCell>
        <mxCell id="ZeDhrGZ1cyevb3TE8War-58" style="edgeStyle=orthogonalEdgeStyle;rounded=0;orthogonalLoop=1;jettySize=auto;html=1;" edge="1" parent="1" target="ZeDhrGZ1cyevb3TE8War-59">
          <mxGeometry relative="1" as="geometry">
            <mxPoint x="3461" y="940" as="sourcePoint" />
            <mxPoint x="3593" y="940" as="targetPoint" />
          </mxGeometry>
        </mxCell>
        <mxCell id="ZeDhrGZ1cyevb3TE8War-59" value="" style="sketch=0;pointerEvents=1;shadow=0;dashed=0;html=1;strokeColor=none;fillColor=#000000;labelPosition=center;verticalLabelPosition=bottom;verticalAlign=top;align=center;outlineConnect=0;shape=mxgraph.veeam2.laptop;" vertex="1" parent="1">
          <mxGeometry x="3575.5" y="916" width="70" height="48" as="geometry" />
        </mxCell>
        <mxCell id="ZeDhrGZ1cyevb3TE8War-60" style="rounded=0;orthogonalLoop=1;jettySize=auto;html=1;entryX=0;entryY=0.5;entryDx=0;entryDy=0;exitX=1;exitY=0.5;exitDx=0;exitDy=0;" edge="1" parent="1" source="ZeDhrGZ1cyevb3TE8War-61" target="ZeDhrGZ1cyevb3TE8War-49">
          <mxGeometry relative="1" as="geometry" />
        </mxCell>
        <mxCell id="ZeDhrGZ1cyevb3TE8War-61" value="Notification System" style="rounded=1;whiteSpace=wrap;html=1;" vertex="1" parent="1">
          <mxGeometry x="2960" y="600" width="120" height="60" as="geometry" />
        </mxCell>
        <mxCell id="ZeDhrGZ1cyevb3TE8War-62" style="rounded=0;orthogonalLoop=1;jettySize=auto;html=1;entryX=0.02;entryY=0.067;entryDx=0;entryDy=0;entryPerimeter=0;exitX=1;exitY=0.5;exitDx=0;exitDy=0;" edge="1" parent="1" source="ZeDhrGZ1cyevb3TE8War-61" target="ZeDhrGZ1cyevb3TE8War-47">
          <mxGeometry relative="1" as="geometry" />
        </mxCell>
        <mxCell id="ZeDhrGZ1cyevb3TE8War-63" style="rounded=0;orthogonalLoop=1;jettySize=auto;html=1;entryX=-0.025;entryY=0.539;entryDx=0;entryDy=0;entryPerimeter=0;exitX=1;exitY=0.5;exitDx=0;exitDy=0;" edge="1" parent="1" source="ZeDhrGZ1cyevb3TE8War-61" target="ZeDhrGZ1cyevb3TE8War-47">
          <mxGeometry relative="1" as="geometry" />
        </mxCell>
        <mxCell id="ZeDhrGZ1cyevb3TE8War-64" style="rounded=0;orthogonalLoop=1;jettySize=auto;html=1;entryX=-0.007;entryY=0.851;entryDx=0;entryDy=0;entryPerimeter=0;exitX=1;exitY=0.5;exitDx=0;exitDy=0;" edge="1" parent="1" source="ZeDhrGZ1cyevb3TE8War-61" target="ZeDhrGZ1cyevb3TE8War-47">
          <mxGeometry relative="1" as="geometry" />
        </mxCell>
        <mxCell id="ZeDhrGZ1cyevb3TE8War-65" style="edgeStyle=orthogonalEdgeStyle;rounded=0;orthogonalLoop=1;jettySize=auto;html=1;entryX=0;entryY=0.5;entryDx=0;entryDy=0;" edge="1" parent="1" source="ZeDhrGZ1cyevb3TE8War-66" target="ZeDhrGZ1cyevb3TE8War-61">
          <mxGeometry relative="1" as="geometry" />
        </mxCell>
        <mxCell id="ZeDhrGZ1cyevb3TE8War-66" value="Service 2" style="rounded=1;whiteSpace=wrap;html=1;" vertex="1" parent="1">
          <mxGeometry x="2710" y="600" width="120" height="60" as="geometry" />
        </mxCell>
        <mxCell id="ZeDhrGZ1cyevb3TE8War-67" style="rounded=0;orthogonalLoop=1;jettySize=auto;html=1;entryX=0;entryY=0.25;entryDx=0;entryDy=0;exitX=1;exitY=0.5;exitDx=0;exitDy=0;" edge="1" parent="1" source="ZeDhrGZ1cyevb3TE8War-68" target="ZeDhrGZ1cyevb3TE8War-61">
          <mxGeometry relative="1" as="geometry" />
        </mxCell>
        <mxCell id="ZeDhrGZ1cyevb3TE8War-68" value="Service 1" style="rounded=1;whiteSpace=wrap;html=1;" vertex="1" parent="1">
          <mxGeometry x="2710" y="470" width="120" height="60" as="geometry" />
        </mxCell>
        <mxCell id="ZeDhrGZ1cyevb3TE8War-69" style="rounded=0;orthogonalLoop=1;jettySize=auto;html=1;entryX=0;entryY=0.75;entryDx=0;entryDy=0;exitX=1;exitY=0.5;exitDx=0;exitDy=0;" edge="1" parent="1" source="ZeDhrGZ1cyevb3TE8War-70" target="ZeDhrGZ1cyevb3TE8War-61">
          <mxGeometry relative="1" as="geometry" />
        </mxCell>
        <mxCell id="ZeDhrGZ1cyevb3TE8War-70" value="Service N" style="rounded=1;whiteSpace=wrap;html=1;" vertex="1" parent="1">
          <mxGeometry x="2710" y="740" width="120" height="60" as="geometry" />
        </mxCell>
        <mxCell id="ZeDhrGZ1cyevb3TE8War-71" value="DB" style="rounded=1;whiteSpace=wrap;html=1;verticalAlign=bottom;fontSize=16;fillColor=none;strokeColor=#3399FF;strokeWidth=2;" vertex="1" parent="1">
          <mxGeometry x="2401.5" y="560" width="100" height="110" as="geometry" />
        </mxCell>
        <mxCell id="ZeDhrGZ1cyevb3TE8War-72" value="on app install&amp;nbsp;&lt;div&gt;or sig up&lt;/div&gt;" style="edgeStyle=orthogonalEdgeStyle;rounded=0;orthogonalLoop=1;jettySize=auto;html=1;entryX=0.05;entryY=0.5;entryDx=0;entryDy=0;entryPerimeter=0;fontSize=16;verticalAlign=bottom;" edge="1" parent="1" source="ZeDhrGZ1cyevb3TE8War-73" target="ZeDhrGZ1cyevb3TE8War-110">
          <mxGeometry relative="1" as="geometry">
            <mxPoint x="1860" y="615" as="targetPoint" />
          </mxGeometry>
        </mxCell>
        <mxCell id="ZeDhrGZ1cyevb3TE8War-73" value="User" style="rounded=1;whiteSpace=wrap;html=1;verticalAlign=top;fontSize=16;fillColor=none;strokeColor=#3399FF;strokeWidth=2;" vertex="1" parent="1">
          <mxGeometry x="1680" y="520" width="100" height="190" as="geometry" />
        </mxCell>
        <mxCell id="ZeDhrGZ1cyevb3TE8War-74" value="Third Party Services" style="rounded=1;whiteSpace=wrap;html=1;dashed=1;dashPattern=8 8;verticalAlign=bottom;fontSize=16;" vertex="1" parent="1">
          <mxGeometry x="1070" y="320" width="130" height="740" as="geometry" />
        </mxCell>
        <mxCell id="ZeDhrGZ1cyevb3TE8War-75" value="APNs" style="html=1;verticalLabelPosition=middle;align=center;labelBackgroundColor=#ffffff;verticalAlign=bottom;strokeWidth=2;strokeColor=#000000;shadow=0;dashed=0;shape=mxgraph.ios7.icons.cloud;labelPosition=center;fontSize=16;" vertex="1" parent="1">
          <mxGeometry x="440" y="330" width="106" height="60" as="geometry" />
        </mxCell>
        <mxCell id="ZeDhrGZ1cyevb3TE8War-76" value="" style="edgeStyle=orthogonalEdgeStyle;rounded=0;orthogonalLoop=1;jettySize=auto;html=1;" edge="1" parent="1" source="ZeDhrGZ1cyevb3TE8War-77" target="ZeDhrGZ1cyevb3TE8War-75">
          <mxGeometry relative="1" as="geometry" />
        </mxCell>
        <mxCell id="ZeDhrGZ1cyevb3TE8War-77" value="Provider" style="ellipse;whiteSpace=wrap;html=1;" vertex="1" parent="1">
          <mxGeometry x="230" y="320" width="80" height="80" as="geometry" />
        </mxCell>
        <mxCell id="ZeDhrGZ1cyevb3TE8War-78" value="iOS" style="verticalLabelPosition=bottom;html=1;verticalAlign=top;align=center;strokeColor=none;fillColor=#000000;shape=mxgraph.azure.mobile;pointerEvents=1;" vertex="1" parent="1">
          <mxGeometry x="680" y="335" width="35" height="50" as="geometry" />
        </mxCell>
        <mxCell id="ZeDhrGZ1cyevb3TE8War-79" style="edgeStyle=orthogonalEdgeStyle;rounded=0;orthogonalLoop=1;jettySize=auto;html=1;entryX=0;entryY=0.5;entryDx=0;entryDy=0;entryPerimeter=0;" edge="1" parent="1" source="ZeDhrGZ1cyevb3TE8War-75" target="ZeDhrGZ1cyevb3TE8War-78">
          <mxGeometry relative="1" as="geometry" />
        </mxCell>
        <mxCell id="ZeDhrGZ1cyevb3TE8War-80" value="" style="edgeStyle=orthogonalEdgeStyle;rounded=0;orthogonalLoop=1;jettySize=auto;html=1;entryX=0;entryY=0.5;entryDx=0;entryDy=0;" edge="1" parent="1" source="ZeDhrGZ1cyevb3TE8War-81" target="ZeDhrGZ1cyevb3TE8War-84">
          <mxGeometry relative="1" as="geometry">
            <mxPoint x="410" y="521" as="targetPoint" />
          </mxGeometry>
        </mxCell>
        <mxCell id="ZeDhrGZ1cyevb3TE8War-81" value="Provider" style="ellipse;whiteSpace=wrap;html=1;" vertex="1" parent="1">
          <mxGeometry x="230" y="481" width="80" height="80" as="geometry" />
        </mxCell>
        <mxCell id="ZeDhrGZ1cyevb3TE8War-82" value="Android" style="verticalLabelPosition=bottom;html=1;verticalAlign=top;align=center;strokeColor=none;fillColor=#000000;shape=mxgraph.azure.mobile;pointerEvents=1;" vertex="1" parent="1">
          <mxGeometry x="680" y="496" width="35" height="50" as="geometry" />
        </mxCell>
        <mxCell id="ZeDhrGZ1cyevb3TE8War-83" style="edgeStyle=orthogonalEdgeStyle;rounded=0;orthogonalLoop=1;jettySize=auto;html=1;entryX=0;entryY=0.5;entryDx=0;entryDy=0;entryPerimeter=0;exitX=1;exitY=0.5;exitDx=0;exitDy=0;" edge="1" parent="1" source="ZeDhrGZ1cyevb3TE8War-84" target="ZeDhrGZ1cyevb3TE8War-82">
          <mxGeometry relative="1" as="geometry">
            <mxPoint x="546" y="521" as="sourcePoint" />
          </mxGeometry>
        </mxCell>
        <mxCell id="ZeDhrGZ1cyevb3TE8War-84" value="FCM" style="shape=image;html=1;verticalAlign=top;verticalLabelPosition=bottom;labelBackgroundColor=#ffffff;imageAspect=0;aspect=fixed;image=https://cdn1.iconfinder.com/data/icons/ionicons-fill-vol-2/512/logo-firebase-128.png;fontSize=16;" vertex="1" parent="1">
          <mxGeometry x="429" y="457" width="128" height="128" as="geometry" />
        </mxCell>
        <mxCell id="ZeDhrGZ1cyevb3TE8War-85" value="" style="edgeStyle=orthogonalEdgeStyle;rounded=0;orthogonalLoop=1;jettySize=auto;html=1;" edge="1" parent="1" source="ZeDhrGZ1cyevb3TE8War-86" target="ZeDhrGZ1cyevb3TE8War-89">
          <mxGeometry relative="1" as="geometry">
            <mxPoint x="429" y="724" as="targetPoint" />
          </mxGeometry>
        </mxCell>
        <mxCell id="ZeDhrGZ1cyevb3TE8War-86" value="Provider" style="ellipse;whiteSpace=wrap;html=1;" vertex="1" parent="1">
          <mxGeometry x="230" y="684" width="80" height="80" as="geometry" />
        </mxCell>
        <mxCell id="ZeDhrGZ1cyevb3TE8War-87" value="Android" style="verticalLabelPosition=bottom;html=1;verticalAlign=top;align=center;strokeColor=none;fillColor=#000000;shape=mxgraph.azure.mobile;pointerEvents=1;" vertex="1" parent="1">
          <mxGeometry x="680" y="699" width="35" height="50" as="geometry" />
        </mxCell>
        <mxCell id="ZeDhrGZ1cyevb3TE8War-88" style="edgeStyle=orthogonalEdgeStyle;rounded=0;orthogonalLoop=1;jettySize=auto;html=1;entryX=0;entryY=0.5;entryDx=0;entryDy=0;entryPerimeter=0;" edge="1" parent="1" source="ZeDhrGZ1cyevb3TE8War-89" target="ZeDhrGZ1cyevb3TE8War-87">
          <mxGeometry relative="1" as="geometry">
            <mxPoint x="557" y="724" as="sourcePoint" />
          </mxGeometry>
        </mxCell>
        <mxCell id="ZeDhrGZ1cyevb3TE8War-89" value="SMS Service" style="dashed=0;outlineConnect=0;html=1;align=center;labelPosition=center;verticalLabelPosition=bottom;verticalAlign=top;shape=mxgraph.webicons.sms;fillColor=#000000;gradientColor=none;fontSize=16;" vertex="1" parent="1">
          <mxGeometry x="443.6" y="672.8" width="102.4" height="102.4" as="geometry" />
        </mxCell>
        <mxCell id="ZeDhrGZ1cyevb3TE8War-90" value="Email Service" style="sketch=0;outlineConnect=0;fontColor=#232F3E;gradientColor=none;fillColor=#000000;strokeColor=none;dashed=0;verticalLabelPosition=bottom;verticalAlign=top;align=center;html=1;fontSize=16;fontStyle=0;aspect=fixed;shape=mxgraph.aws4.email;" vertex="1" parent="1">
          <mxGeometry x="455.8" y="905.5" width="78" height="69" as="geometry" />
        </mxCell>
        <mxCell id="ZeDhrGZ1cyevb3TE8War-91" value="" style="edgeStyle=orthogonalEdgeStyle;rounded=0;orthogonalLoop=1;jettySize=auto;html=1;" edge="1" parent="1" source="ZeDhrGZ1cyevb3TE8War-92" target="ZeDhrGZ1cyevb3TE8War-90">
          <mxGeometry relative="1" as="geometry">
            <mxPoint x="443.5999999999999" y="940" as="targetPoint" />
          </mxGeometry>
        </mxCell>
        <mxCell id="ZeDhrGZ1cyevb3TE8War-92" value="Provider" style="ellipse;whiteSpace=wrap;html=1;" vertex="1" parent="1">
          <mxGeometry x="230" y="900" width="80" height="80" as="geometry" />
        </mxCell>
        <mxCell id="ZeDhrGZ1cyevb3TE8War-93" style="edgeStyle=orthogonalEdgeStyle;rounded=0;orthogonalLoop=1;jettySize=auto;html=1;entryX=0;entryY=0.5;entryDx=0;entryDy=0;entryPerimeter=0;" edge="1" parent="1" source="ZeDhrGZ1cyevb3TE8War-90">
          <mxGeometry relative="1" as="geometry">
            <mxPoint x="546" y="940" as="sourcePoint" />
            <mxPoint x="680" y="940" as="targetPoint" />
          </mxGeometry>
        </mxCell>
        <mxCell id="ZeDhrGZ1cyevb3TE8War-94" value="APNs" style="html=1;verticalLabelPosition=middle;align=center;labelBackgroundColor=#ffffff;verticalAlign=bottom;strokeWidth=2;strokeColor=#000000;shadow=0;dashed=0;shape=mxgraph.ios7.icons.cloud;labelPosition=center;fontSize=16;" vertex="1" parent="1">
          <mxGeometry x="1081" y="330" width="106" height="60" as="geometry" />
        </mxCell>
        <mxCell id="ZeDhrGZ1cyevb3TE8War-95" value="FCM" style="shape=image;html=1;verticalAlign=top;verticalLabelPosition=bottom;labelBackgroundColor=#ffffff;imageAspect=0;aspect=fixed;image=https://cdn1.iconfinder.com/data/icons/ionicons-fill-vol-2/512/logo-firebase-128.png;fontSize=16;" vertex="1" parent="1">
          <mxGeometry x="1070" y="457" width="128" height="128" as="geometry" />
        </mxCell>
        <mxCell id="ZeDhrGZ1cyevb3TE8War-96" value="SMS Service" style="dashed=0;outlineConnect=0;html=1;align=center;labelPosition=center;verticalLabelPosition=bottom;verticalAlign=top;shape=mxgraph.webicons.sms;fillColor=#000000;gradientColor=none;fontSize=16;" vertex="1" parent="1">
          <mxGeometry x="1084.6" y="672.8" width="102.4" height="102.4" as="geometry" />
        </mxCell>
        <mxCell id="ZeDhrGZ1cyevb3TE8War-97" value="Email Service" style="sketch=0;outlineConnect=0;fontColor=#232F3E;gradientColor=none;fillColor=#000000;strokeColor=none;dashed=0;verticalLabelPosition=bottom;verticalAlign=top;align=center;html=1;fontSize=16;fontStyle=0;aspect=fixed;shape=mxgraph.aws4.email;" vertex="1" parent="1">
          <mxGeometry x="1096.8" y="905.5" width="78" height="69" as="geometry" />
        </mxCell>
        <mxCell id="ZeDhrGZ1cyevb3TE8War-98" value="iOS" style="verticalLabelPosition=bottom;html=1;verticalAlign=top;align=center;strokeColor=none;fillColor=#000000;shape=mxgraph.azure.mobile;pointerEvents=1;" vertex="1" parent="1">
          <mxGeometry x="1333" y="335" width="35" height="50" as="geometry" />
        </mxCell>
        <mxCell id="ZeDhrGZ1cyevb3TE8War-99" style="edgeStyle=orthogonalEdgeStyle;rounded=0;orthogonalLoop=1;jettySize=auto;html=1;entryX=0;entryY=0.5;entryDx=0;entryDy=0;entryPerimeter=0;exitX=1.026;exitY=0.053;exitDx=0;exitDy=0;exitPerimeter=0;" edge="1" parent="1" source="ZeDhrGZ1cyevb3TE8War-74" target="ZeDhrGZ1cyevb3TE8War-98">
          <mxGeometry relative="1" as="geometry">
            <mxPoint x="1220" y="340" as="sourcePoint" />
          </mxGeometry>
        </mxCell>
        <mxCell id="ZeDhrGZ1cyevb3TE8War-100" value="Android" style="verticalLabelPosition=bottom;html=1;verticalAlign=top;align=center;strokeColor=none;fillColor=#000000;shape=mxgraph.azure.mobile;pointerEvents=1;" vertex="1" parent="1">
          <mxGeometry x="1333" y="496" width="35" height="50" as="geometry" />
        </mxCell>
        <mxCell id="ZeDhrGZ1cyevb3TE8War-101" style="rounded=0;orthogonalLoop=1;jettySize=auto;html=1;entryX=0;entryY=0.5;entryDx=0;entryDy=0;entryPerimeter=0;exitX=1.013;exitY=0.272;exitDx=0;exitDy=0;exitPerimeter=0;" edge="1" parent="1" source="ZeDhrGZ1cyevb3TE8War-74" target="ZeDhrGZ1cyevb3TE8War-100">
          <mxGeometry relative="1" as="geometry">
            <mxPoint x="1210" y="521" as="sourcePoint" />
          </mxGeometry>
        </mxCell>
        <mxCell id="ZeDhrGZ1cyevb3TE8War-102" value="Android" style="verticalLabelPosition=bottom;html=1;verticalAlign=top;align=center;strokeColor=none;fillColor=#000000;shape=mxgraph.azure.mobile;pointerEvents=1;" vertex="1" parent="1">
          <mxGeometry x="1333" y="699" width="35" height="50" as="geometry" />
        </mxCell>
        <mxCell id="ZeDhrGZ1cyevb3TE8War-103" style="edgeStyle=orthogonalEdgeStyle;rounded=0;orthogonalLoop=1;jettySize=auto;html=1;entryX=0;entryY=0.5;entryDx=0;entryDy=0;entryPerimeter=0;" edge="1" parent="1" target="ZeDhrGZ1cyevb3TE8War-102">
          <mxGeometry relative="1" as="geometry">
            <mxPoint x="1199" y="724" as="sourcePoint" />
          </mxGeometry>
        </mxCell>
        <mxCell id="ZeDhrGZ1cyevb3TE8War-104" style="edgeStyle=orthogonalEdgeStyle;rounded=0;orthogonalLoop=1;jettySize=auto;html=1;" edge="1" parent="1" target="ZeDhrGZ1cyevb3TE8War-106">
          <mxGeometry relative="1" as="geometry">
            <mxPoint x="1201" y="940" as="sourcePoint" />
            <mxPoint x="1333" y="940" as="targetPoint" />
          </mxGeometry>
        </mxCell>
        <mxCell id="ZeDhrGZ1cyevb3TE8War-105" value="" style="sketch=0;pointerEvents=1;shadow=0;dashed=0;html=1;strokeColor=none;fillColor=#000000;labelPosition=center;verticalLabelPosition=bottom;verticalAlign=top;align=center;outlineConnect=0;shape=mxgraph.veeam2.laptop;" vertex="1" parent="1">
          <mxGeometry x="680" y="916" width="70" height="48" as="geometry" />
        </mxCell>
        <mxCell id="ZeDhrGZ1cyevb3TE8War-106" value="" style="sketch=0;pointerEvents=1;shadow=0;dashed=0;html=1;strokeColor=none;fillColor=#000000;labelPosition=center;verticalLabelPosition=bottom;verticalAlign=top;align=center;outlineConnect=0;shape=mxgraph.veeam2.laptop;" vertex="1" parent="1">
          <mxGeometry x="1315.5" y="916" width="70" height="48" as="geometry" />
        </mxCell>
        <mxCell id="ZeDhrGZ1cyevb3TE8War-107" value="" style="verticalLabelPosition=bottom;html=1;verticalAlign=top;align=center;strokeColor=none;fillColor=#000000;shape=mxgraph.azure.mobile;pointerEvents=1;" vertex="1" parent="1">
          <mxGeometry x="1710" y="630" width="40" height="50" as="geometry" />
        </mxCell>
        <mxCell id="ZeDhrGZ1cyevb3TE8War-108" value="" style="sketch=0;pointerEvents=1;shadow=0;dashed=0;html=1;strokeColor=none;fillColor=#000000;labelPosition=center;verticalLabelPosition=bottom;verticalAlign=top;align=center;outlineConnect=0;shape=mxgraph.veeam2.laptop;" vertex="1" parent="1">
          <mxGeometry x="1690" y="560" width="80" height="50" as="geometry" />
        </mxCell>
        <mxCell id="ZeDhrGZ1cyevb3TE8War-109" style="edgeStyle=orthogonalEdgeStyle;rounded=0;orthogonalLoop=1;jettySize=auto;html=1;entryX=0;entryY=0.5;entryDx=0;entryDy=0;" edge="1" parent="1" source="ZeDhrGZ1cyevb3TE8War-110" target="ZeDhrGZ1cyevb3TE8War-113">
          <mxGeometry relative="1" as="geometry" />
        </mxCell>
        <mxCell id="ZeDhrGZ1cyevb3TE8War-110" value="Load balancer" style="verticalLabelPosition=bottom;html=1;verticalAlign=top;align=center;strokeColor=none;fillColor=#00BEF2;shape=mxgraph.azure.azure_load_balancer;fontSize=16;" vertex="1" parent="1">
          <mxGeometry x="1940" y="585" width="80" height="60" as="geometry" />
        </mxCell>
        <mxCell id="ZeDhrGZ1cyevb3TE8War-111" value="" style="sketch=0;pointerEvents=1;shadow=0;dashed=0;html=1;strokeColor=none;fillColor=#505050;labelPosition=center;verticalLabelPosition=bottom;verticalAlign=top;outlineConnect=0;align=center;shape=mxgraph.office.servers.server_farm;fillColor=#7FBA42;" vertex="1" parent="1">
          <mxGeometry x="2160" y="570" width="70" height="80" as="geometry" />
        </mxCell>
        <mxCell id="ZeDhrGZ1cyevb3TE8War-112" value="store contact info" style="edgeStyle=orthogonalEdgeStyle;rounded=0;orthogonalLoop=1;jettySize=auto;html=1;entryX=0;entryY=0.5;entryDx=0;entryDy=0;verticalAlign=bottom;fontSize=16;" edge="1" parent="1" source="ZeDhrGZ1cyevb3TE8War-113" target="ZeDhrGZ1cyevb3TE8War-71">
          <mxGeometry relative="1" as="geometry">
            <mxPoint x="2370" y="615" as="targetPoint" />
          </mxGeometry>
        </mxCell>
        <mxCell id="ZeDhrGZ1cyevb3TE8War-113" value="API Servers" style="rounded=1;whiteSpace=wrap;html=1;verticalAlign=bottom;fontSize=16;fillColor=none;strokeColor=#3399FF;strokeWidth=2;dashed=1;" vertex="1" parent="1">
          <mxGeometry x="2142.5" y="550" width="105" height="130" as="geometry" />
        </mxCell>
        <mxCell id="ZeDhrGZ1cyevb3TE8War-114" value="" style="sketch=0;shadow=0;dashed=0;html=1;strokeColor=none;fillColor=#3399FF;labelPosition=center;verticalLabelPosition=bottom;verticalAlign=top;outlineConnect=0;align=center;shape=mxgraph.office.databases.database_availability_group;" vertex="1" parent="1">
          <mxGeometry x="2422" y="581" width="59" height="59" as="geometry" />
        </mxCell>
        <mxCell id="ZeDhrGZ1cyevb3TE8War-115" value="Third Party Services" style="rounded=1;whiteSpace=wrap;html=1;dashed=1;dashPattern=8 8;verticalAlign=bottom;fontSize=16;" vertex="1" parent="1">
          <mxGeometry x="3330" y="320" width="130" height="740" as="geometry" />
        </mxCell>
        <mxCell id="ZeDhrGZ1cyevb3TE8War-116" value="APNs" style="html=1;verticalLabelPosition=middle;align=center;labelBackgroundColor=#ffffff;verticalAlign=bottom;strokeWidth=2;strokeColor=#000000;shadow=0;dashed=0;shape=mxgraph.ios7.icons.cloud;labelPosition=center;fontSize=16;" vertex="1" parent="1">
          <mxGeometry x="3341" y="330" width="106" height="60" as="geometry" />
        </mxCell>
        <mxCell id="ZeDhrGZ1cyevb3TE8War-117" value="FCM" style="shape=image;html=1;verticalAlign=top;verticalLabelPosition=bottom;labelBackgroundColor=#ffffff;imageAspect=0;aspect=fixed;image=https://cdn1.iconfinder.com/data/icons/ionicons-fill-vol-2/512/logo-firebase-128.png;fontSize=16;" vertex="1" parent="1">
          <mxGeometry x="3330" y="457" width="128" height="128" as="geometry" />
        </mxCell>
        <mxCell id="ZeDhrGZ1cyevb3TE8War-118" value="SMS Service" style="dashed=0;outlineConnect=0;html=1;align=center;labelPosition=center;verticalLabelPosition=bottom;verticalAlign=top;shape=mxgraph.webicons.sms;fillColor=#000000;gradientColor=none;fontSize=16;" vertex="1" parent="1">
          <mxGeometry x="3344.6" y="672.8" width="102.4" height="102.4" as="geometry" />
        </mxCell>
        <mxCell id="ZeDhrGZ1cyevb3TE8War-119" value="Email Service" style="sketch=0;outlineConnect=0;fontColor=#232F3E;gradientColor=none;fillColor=#000000;strokeColor=none;dashed=0;verticalLabelPosition=bottom;verticalAlign=top;align=center;html=1;fontSize=16;fontStyle=0;aspect=fixed;shape=mxgraph.aws4.email;" vertex="1" parent="1">
          <mxGeometry x="3356.8" y="905.5" width="78" height="69" as="geometry" />
        </mxCell>
        <mxCell id="ZeDhrGZ1cyevb3TE8War-120" value="iOS" style="verticalLabelPosition=bottom;html=1;verticalAlign=top;align=center;strokeColor=none;fillColor=#000000;shape=mxgraph.azure.mobile;pointerEvents=1;" vertex="1" parent="1">
          <mxGeometry x="3593" y="335" width="35" height="50" as="geometry" />
        </mxCell>
        <mxCell id="ZeDhrGZ1cyevb3TE8War-121" style="edgeStyle=orthogonalEdgeStyle;rounded=0;orthogonalLoop=1;jettySize=auto;html=1;entryX=0;entryY=0.5;entryDx=0;entryDy=0;entryPerimeter=0;exitX=1.026;exitY=0.053;exitDx=0;exitDy=0;exitPerimeter=0;" edge="1" parent="1" source="ZeDhrGZ1cyevb3TE8War-115" target="ZeDhrGZ1cyevb3TE8War-120">
          <mxGeometry relative="1" as="geometry">
            <mxPoint x="3480" y="340" as="sourcePoint" />
          </mxGeometry>
        </mxCell>
        <mxCell id="ZeDhrGZ1cyevb3TE8War-122" value="Android" style="verticalLabelPosition=bottom;html=1;verticalAlign=top;align=center;strokeColor=none;fillColor=#000000;shape=mxgraph.azure.mobile;pointerEvents=1;" vertex="1" parent="1">
          <mxGeometry x="3593" y="496" width="35" height="50" as="geometry" />
        </mxCell>
        <mxCell id="ZeDhrGZ1cyevb3TE8War-123" style="rounded=0;orthogonalLoop=1;jettySize=auto;html=1;entryX=0;entryY=0.5;entryDx=0;entryDy=0;entryPerimeter=0;exitX=1.013;exitY=0.272;exitDx=0;exitDy=0;exitPerimeter=0;" edge="1" parent="1" source="ZeDhrGZ1cyevb3TE8War-115" target="ZeDhrGZ1cyevb3TE8War-122">
          <mxGeometry relative="1" as="geometry">
            <mxPoint x="3470" y="521" as="sourcePoint" />
          </mxGeometry>
        </mxCell>
        <mxCell id="ZeDhrGZ1cyevb3TE8War-124" value="Android" style="verticalLabelPosition=bottom;html=1;verticalAlign=top;align=center;strokeColor=none;fillColor=#000000;shape=mxgraph.azure.mobile;pointerEvents=1;" vertex="1" parent="1">
          <mxGeometry x="3593" y="699" width="35" height="50" as="geometry" />
        </mxCell>
        <mxCell id="ZeDhrGZ1cyevb3TE8War-125" style="edgeStyle=orthogonalEdgeStyle;rounded=0;orthogonalLoop=1;jettySize=auto;html=1;entryX=0;entryY=0.5;entryDx=0;entryDy=0;entryPerimeter=0;" edge="1" parent="1" target="ZeDhrGZ1cyevb3TE8War-124">
          <mxGeometry relative="1" as="geometry">
            <mxPoint x="3459" y="724" as="sourcePoint" />
          </mxGeometry>
        </mxCell>
        <mxCell id="ZeDhrGZ1cyevb3TE8War-126" style="edgeStyle=orthogonalEdgeStyle;rounded=0;orthogonalLoop=1;jettySize=auto;html=1;" edge="1" parent="1" target="ZeDhrGZ1cyevb3TE8War-127">
          <mxGeometry relative="1" as="geometry">
            <mxPoint x="3461" y="940" as="sourcePoint" />
            <mxPoint x="3593" y="940" as="targetPoint" />
          </mxGeometry>
        </mxCell>
        <mxCell id="ZeDhrGZ1cyevb3TE8War-127" value="" style="sketch=0;pointerEvents=1;shadow=0;dashed=0;html=1;strokeColor=none;fillColor=#000000;labelPosition=center;verticalLabelPosition=bottom;verticalAlign=top;align=center;outlineConnect=0;shape=mxgraph.veeam2.laptop;" vertex="1" parent="1">
          <mxGeometry x="3575.5" y="916" width="70" height="48" as="geometry" />
        </mxCell>
        <mxCell id="ZeDhrGZ1cyevb3TE8War-128" style="rounded=0;orthogonalLoop=1;jettySize=auto;html=1;entryX=0;entryY=0.5;entryDx=0;entryDy=0;exitX=1;exitY=0.5;exitDx=0;exitDy=0;" edge="1" parent="1" source="ZeDhrGZ1cyevb3TE8War-129" target="ZeDhrGZ1cyevb3TE8War-117">
          <mxGeometry relative="1" as="geometry" />
        </mxCell>
        <mxCell id="ZeDhrGZ1cyevb3TE8War-129" value="Notification System" style="rounded=1;whiteSpace=wrap;html=1;" vertex="1" parent="1">
          <mxGeometry x="2960" y="600" width="120" height="60" as="geometry" />
        </mxCell>
        <mxCell id="ZeDhrGZ1cyevb3TE8War-130" style="rounded=0;orthogonalLoop=1;jettySize=auto;html=1;entryX=0.02;entryY=0.067;entryDx=0;entryDy=0;entryPerimeter=0;exitX=1;exitY=0.5;exitDx=0;exitDy=0;" edge="1" parent="1" source="ZeDhrGZ1cyevb3TE8War-129" target="ZeDhrGZ1cyevb3TE8War-115">
          <mxGeometry relative="1" as="geometry" />
        </mxCell>
        <mxCell id="ZeDhrGZ1cyevb3TE8War-131" style="rounded=0;orthogonalLoop=1;jettySize=auto;html=1;entryX=-0.025;entryY=0.539;entryDx=0;entryDy=0;entryPerimeter=0;exitX=1;exitY=0.5;exitDx=0;exitDy=0;" edge="1" parent="1" source="ZeDhrGZ1cyevb3TE8War-129" target="ZeDhrGZ1cyevb3TE8War-115">
          <mxGeometry relative="1" as="geometry" />
        </mxCell>
        <mxCell id="ZeDhrGZ1cyevb3TE8War-132" style="rounded=0;orthogonalLoop=1;jettySize=auto;html=1;entryX=-0.007;entryY=0.851;entryDx=0;entryDy=0;entryPerimeter=0;exitX=1;exitY=0.5;exitDx=0;exitDy=0;" edge="1" parent="1" source="ZeDhrGZ1cyevb3TE8War-129" target="ZeDhrGZ1cyevb3TE8War-115">
          <mxGeometry relative="1" as="geometry" />
        </mxCell>
        <mxCell id="ZeDhrGZ1cyevb3TE8War-133" style="edgeStyle=orthogonalEdgeStyle;rounded=0;orthogonalLoop=1;jettySize=auto;html=1;entryX=0;entryY=0.5;entryDx=0;entryDy=0;" edge="1" parent="1" source="ZeDhrGZ1cyevb3TE8War-134" target="ZeDhrGZ1cyevb3TE8War-129">
          <mxGeometry relative="1" as="geometry" />
        </mxCell>
        <mxCell id="ZeDhrGZ1cyevb3TE8War-134" value="Service 2" style="rounded=1;whiteSpace=wrap;html=1;" vertex="1" parent="1">
          <mxGeometry x="2710" y="600" width="120" height="60" as="geometry" />
        </mxCell>
        <mxCell id="ZeDhrGZ1cyevb3TE8War-135" style="rounded=0;orthogonalLoop=1;jettySize=auto;html=1;entryX=0;entryY=0.25;entryDx=0;entryDy=0;exitX=1;exitY=0.5;exitDx=0;exitDy=0;" edge="1" parent="1" source="ZeDhrGZ1cyevb3TE8War-136" target="ZeDhrGZ1cyevb3TE8War-129">
          <mxGeometry relative="1" as="geometry" />
        </mxCell>
        <mxCell id="ZeDhrGZ1cyevb3TE8War-136" value="Service 1" style="rounded=1;whiteSpace=wrap;html=1;" vertex="1" parent="1">
          <mxGeometry x="2710" y="470" width="120" height="60" as="geometry" />
        </mxCell>
        <mxCell id="ZeDhrGZ1cyevb3TE8War-137" style="rounded=0;orthogonalLoop=1;jettySize=auto;html=1;entryX=0;entryY=0.75;entryDx=0;entryDy=0;exitX=1;exitY=0.5;exitDx=0;exitDy=0;" edge="1" parent="1" source="ZeDhrGZ1cyevb3TE8War-138" target="ZeDhrGZ1cyevb3TE8War-129">
          <mxGeometry relative="1" as="geometry" />
        </mxCell>
        <mxCell id="ZeDhrGZ1cyevb3TE8War-138" value="Service N" style="rounded=1;whiteSpace=wrap;html=1;" vertex="1" parent="1">
          <mxGeometry x="2710" y="740" width="120" height="60" as="geometry" />
        </mxCell>
        <mxCell id="ZeDhrGZ1cyevb3TE8War-139" value="Third Party Services" style="rounded=1;whiteSpace=wrap;html=1;dashed=1;dashPattern=8 8;verticalAlign=bottom;fontSize=16;" vertex="1" parent="1">
          <mxGeometry x="5030" y="320" width="130" height="740" as="geometry" />
        </mxCell>
        <mxCell id="ZeDhrGZ1cyevb3TE8War-140" value="APNs" style="html=1;verticalLabelPosition=middle;align=center;labelBackgroundColor=#ffffff;verticalAlign=bottom;strokeWidth=2;strokeColor=#000000;shadow=0;dashed=0;shape=mxgraph.ios7.icons.cloud;labelPosition=center;fontSize=16;" vertex="1" parent="1">
          <mxGeometry x="5041" y="330" width="106" height="60" as="geometry" />
        </mxCell>
        <mxCell id="ZeDhrGZ1cyevb3TE8War-141" value="FCM" style="shape=image;html=1;verticalAlign=top;verticalLabelPosition=bottom;labelBackgroundColor=#ffffff;imageAspect=0;aspect=fixed;image=https://cdn1.iconfinder.com/data/icons/ionicons-fill-vol-2/512/logo-firebase-128.png;fontSize=16;" vertex="1" parent="1">
          <mxGeometry x="5030" y="481" width="128" height="128" as="geometry" />
        </mxCell>
        <mxCell id="ZeDhrGZ1cyevb3TE8War-142" value="SMS Service" style="dashed=0;outlineConnect=0;html=1;align=center;labelPosition=center;verticalLabelPosition=bottom;verticalAlign=top;shape=mxgraph.webicons.sms;fillColor=#000000;gradientColor=none;fontSize=16;" vertex="1" parent="1">
          <mxGeometry x="5045.6" y="697.8" width="102.4" height="102.4" as="geometry" />
        </mxCell>
        <mxCell id="ZeDhrGZ1cyevb3TE8War-143" value="Email Service" style="sketch=0;outlineConnect=0;fontColor=#232F3E;gradientColor=none;fillColor=#000000;strokeColor=none;dashed=0;verticalLabelPosition=bottom;verticalAlign=top;align=center;html=1;fontSize=16;fontStyle=0;aspect=fixed;shape=mxgraph.aws4.email;" vertex="1" parent="1">
          <mxGeometry x="5056.8" y="905.5" width="78" height="69" as="geometry" />
        </mxCell>
        <mxCell id="ZeDhrGZ1cyevb3TE8War-144" value="iOS" style="verticalLabelPosition=bottom;html=1;verticalAlign=top;align=center;strokeColor=none;fillColor=#000000;shape=mxgraph.azure.mobile;pointerEvents=1;" vertex="1" parent="1">
          <mxGeometry x="5293" y="335" width="35" height="50" as="geometry" />
        </mxCell>
        <mxCell id="ZeDhrGZ1cyevb3TE8War-145" style="edgeStyle=orthogonalEdgeStyle;rounded=0;orthogonalLoop=1;jettySize=auto;html=1;entryX=0;entryY=0.5;entryDx=0;entryDy=0;entryPerimeter=0;exitX=1.026;exitY=0.053;exitDx=0;exitDy=0;exitPerimeter=0;" edge="1" parent="1" source="ZeDhrGZ1cyevb3TE8War-139" target="ZeDhrGZ1cyevb3TE8War-144">
          <mxGeometry relative="1" as="geometry">
            <mxPoint x="5180" y="340" as="sourcePoint" />
          </mxGeometry>
        </mxCell>
        <mxCell id="ZeDhrGZ1cyevb3TE8War-146" value="Android" style="verticalLabelPosition=bottom;html=1;verticalAlign=top;align=center;strokeColor=none;fillColor=#000000;shape=mxgraph.azure.mobile;pointerEvents=1;" vertex="1" parent="1">
          <mxGeometry x="5293" y="520" width="35" height="50" as="geometry" />
        </mxCell>
        <mxCell id="ZeDhrGZ1cyevb3TE8War-147" style="rounded=0;orthogonalLoop=1;jettySize=auto;html=1;entryX=0;entryY=0.5;entryDx=0;entryDy=0;entryPerimeter=0;exitX=1.013;exitY=0.272;exitDx=0;exitDy=0;exitPerimeter=0;" edge="1" parent="1" target="ZeDhrGZ1cyevb3TE8War-146">
          <mxGeometry relative="1" as="geometry">
            <mxPoint x="5161.69" y="545.28" as="sourcePoint" />
          </mxGeometry>
        </mxCell>
        <mxCell id="ZeDhrGZ1cyevb3TE8War-148" value="Android" style="verticalLabelPosition=bottom;html=1;verticalAlign=top;align=center;strokeColor=none;fillColor=#000000;shape=mxgraph.azure.mobile;pointerEvents=1;" vertex="1" parent="1">
          <mxGeometry x="5294" y="724" width="35" height="50" as="geometry" />
        </mxCell>
        <mxCell id="ZeDhrGZ1cyevb3TE8War-149" style="edgeStyle=orthogonalEdgeStyle;rounded=0;orthogonalLoop=1;jettySize=auto;html=1;entryX=0;entryY=0.5;entryDx=0;entryDy=0;entryPerimeter=0;" edge="1" parent="1" target="ZeDhrGZ1cyevb3TE8War-148">
          <mxGeometry relative="1" as="geometry">
            <mxPoint x="5160" y="749" as="sourcePoint" />
          </mxGeometry>
        </mxCell>
        <mxCell id="ZeDhrGZ1cyevb3TE8War-150" style="edgeStyle=orthogonalEdgeStyle;rounded=0;orthogonalLoop=1;jettySize=auto;html=1;" edge="1" parent="1" target="ZeDhrGZ1cyevb3TE8War-151">
          <mxGeometry relative="1" as="geometry">
            <mxPoint x="5161" y="940" as="sourcePoint" />
            <mxPoint x="5293" y="940" as="targetPoint" />
          </mxGeometry>
        </mxCell>
        <mxCell id="ZeDhrGZ1cyevb3TE8War-151" value="" style="sketch=0;pointerEvents=1;shadow=0;dashed=0;html=1;strokeColor=none;fillColor=#000000;labelPosition=center;verticalLabelPosition=bottom;verticalAlign=top;align=center;outlineConnect=0;shape=mxgraph.veeam2.laptop;" vertex="1" parent="1">
          <mxGeometry x="5275.5" y="916" width="70" height="48" as="geometry" />
        </mxCell>
        <mxCell id="ZeDhrGZ1cyevb3TE8War-152" value="" style="sketch=0;pointerEvents=1;shadow=0;dashed=0;html=1;strokeColor=none;fillColor=#505050;labelPosition=center;verticalLabelPosition=bottom;verticalAlign=top;outlineConnect=0;align=center;shape=mxgraph.office.servers.server_farm;fillColor=#7FBA42;" vertex="1" parent="1">
          <mxGeometry x="4757.5" y="330" width="70" height="80" as="geometry" />
        </mxCell>
        <mxCell id="ZeDhrGZ1cyevb3TE8War-153" value="Workers" style="rounded=1;whiteSpace=wrap;html=1;verticalAlign=bottom;fontSize=16;fillColor=none;strokeColor=#3399FF;strokeWidth=2;dashed=1;" vertex="1" parent="1">
          <mxGeometry x="4740" y="310" width="105" height="130" as="geometry" />
        </mxCell>
        <mxCell id="ZeDhrGZ1cyevb3TE8War-154" style="edgeStyle=orthogonalEdgeStyle;rounded=0;orthogonalLoop=1;jettySize=auto;html=1;entryX=0.011;entryY=0.073;entryDx=0;entryDy=0;entryPerimeter=0;" edge="1" parent="1" source="ZeDhrGZ1cyevb3TE8War-153" target="ZeDhrGZ1cyevb3TE8War-139">
          <mxGeometry relative="1" as="geometry">
            <mxPoint x="5030" y="375" as="targetPoint" />
          </mxGeometry>
        </mxCell>
        <mxCell id="ZeDhrGZ1cyevb3TE8War-155" value="" style="sketch=0;pointerEvents=1;shadow=0;dashed=0;html=1;strokeColor=none;fillColor=#505050;labelPosition=center;verticalLabelPosition=bottom;verticalAlign=top;outlineConnect=0;align=center;shape=mxgraph.office.servers.server_farm;fillColor=#7FBA42;" vertex="1" parent="1">
          <mxGeometry x="4757.5" y="514" width="70" height="80" as="geometry" />
        </mxCell>
        <mxCell id="ZeDhrGZ1cyevb3TE8War-156" value="Workers" style="rounded=1;whiteSpace=wrap;html=1;verticalAlign=bottom;fontSize=16;fillColor=none;strokeColor=#3399FF;strokeWidth=2;dashed=1;" vertex="1" parent="1">
          <mxGeometry x="4740" y="494" width="105" height="130" as="geometry" />
        </mxCell>
        <mxCell id="ZeDhrGZ1cyevb3TE8War-157" style="edgeStyle=orthogonalEdgeStyle;rounded=0;orthogonalLoop=1;jettySize=auto;html=1;entryX=0.011;entryY=0.073;entryDx=0;entryDy=0;entryPerimeter=0;" edge="1" parent="1" source="ZeDhrGZ1cyevb3TE8War-156">
          <mxGeometry relative="1" as="geometry">
            <mxPoint x="5031" y="558" as="targetPoint" />
          </mxGeometry>
        </mxCell>
        <mxCell id="ZeDhrGZ1cyevb3TE8War-158" value="" style="sketch=0;pointerEvents=1;shadow=0;dashed=0;html=1;strokeColor=none;fillColor=#505050;labelPosition=center;verticalLabelPosition=bottom;verticalAlign=top;outlineConnect=0;align=center;shape=mxgraph.office.servers.server_farm;fillColor=#7FBA42;" vertex="1" parent="1">
          <mxGeometry x="4757.5" y="704" width="70" height="80" as="geometry" />
        </mxCell>
        <mxCell id="ZeDhrGZ1cyevb3TE8War-159" value="Workers" style="rounded=1;whiteSpace=wrap;html=1;verticalAlign=bottom;fontSize=16;fillColor=none;strokeColor=#3399FF;strokeWidth=2;dashed=1;" vertex="1" parent="1">
          <mxGeometry x="4740" y="684" width="105" height="130" as="geometry" />
        </mxCell>
        <mxCell id="ZeDhrGZ1cyevb3TE8War-160" style="edgeStyle=orthogonalEdgeStyle;rounded=0;orthogonalLoop=1;jettySize=auto;html=1;entryX=0.011;entryY=0.073;entryDx=0;entryDy=0;entryPerimeter=0;" edge="1" parent="1" source="ZeDhrGZ1cyevb3TE8War-159">
          <mxGeometry relative="1" as="geometry">
            <mxPoint x="5031" y="748" as="targetPoint" />
          </mxGeometry>
        </mxCell>
        <mxCell id="ZeDhrGZ1cyevb3TE8War-161" value="" style="sketch=0;pointerEvents=1;shadow=0;dashed=0;html=1;strokeColor=none;fillColor=#505050;labelPosition=center;verticalLabelPosition=bottom;verticalAlign=top;outlineConnect=0;align=center;shape=mxgraph.office.servers.server_farm;fillColor=#7FBA42;" vertex="1" parent="1">
          <mxGeometry x="4757.5" y="900" width="70" height="80" as="geometry" />
        </mxCell>
        <mxCell id="ZeDhrGZ1cyevb3TE8War-162" value="Workers" style="rounded=1;whiteSpace=wrap;html=1;verticalAlign=bottom;fontSize=16;fillColor=none;strokeColor=#3399FF;strokeWidth=2;dashed=1;" vertex="1" parent="1">
          <mxGeometry x="4740" y="880" width="105" height="130" as="geometry" />
        </mxCell>
        <mxCell id="ZeDhrGZ1cyevb3TE8War-163" style="edgeStyle=orthogonalEdgeStyle;rounded=0;orthogonalLoop=1;jettySize=auto;html=1;entryX=0.011;entryY=0.073;entryDx=0;entryDy=0;entryPerimeter=0;" edge="1" parent="1" source="ZeDhrGZ1cyevb3TE8War-162">
          <mxGeometry relative="1" as="geometry">
            <mxPoint x="5031" y="944" as="targetPoint" />
          </mxGeometry>
        </mxCell>
        <mxCell id="ZeDhrGZ1cyevb3TE8War-164" style="edgeStyle=orthogonalEdgeStyle;rounded=0;orthogonalLoop=1;jettySize=auto;html=1;entryX=0;entryY=0.5;entryDx=0;entryDy=0;" edge="1" parent="1" source="ZeDhrGZ1cyevb3TE8War-165" target="ZeDhrGZ1cyevb3TE8War-156">
          <mxGeometry relative="1" as="geometry">
            <mxPoint x="4730" y="566.9999999999998" as="targetPoint" />
          </mxGeometry>
        </mxCell>
        <mxCell id="ZeDhrGZ1cyevb3TE8War-165" value="Android PN" style="html=1;shadow=0;dashed=0;align=center;verticalAlign=top;shape=mxgraph.arrows2.arrow;dy=0;dx=10;notch=0;strokeColor=#3399FF;strokeWidth=3;labelPosition=center;verticalLabelPosition=bottom;fontSize=16;" vertex="1" parent="1">
          <mxGeometry x="4420" y="535" width="200" height="50" as="geometry" />
        </mxCell>
        <mxCell id="ZeDhrGZ1cyevb3TE8War-166" value="" style="html=1;verticalLabelPosition=bottom;align=center;labelBackgroundColor=#ffffff;verticalAlign=top;strokeWidth=2;strokeColor=#0080F0;shadow=0;dashed=0;shape=mxgraph.ios7.icons.mail;" vertex="1" parent="1">
          <mxGeometry x="4430" y="543.5" width="50" height="31.5" as="geometry" />
        </mxCell>
        <mxCell id="ZeDhrGZ1cyevb3TE8War-167" value="" style="html=1;verticalLabelPosition=bottom;align=center;labelBackgroundColor=#ffffff;verticalAlign=top;strokeWidth=2;strokeColor=#0080F0;shadow=0;dashed=0;shape=mxgraph.ios7.icons.mail;" vertex="1" parent="1">
          <mxGeometry x="4550" y="543.5" width="50" height="31.5" as="geometry" />
        </mxCell>
        <mxCell id="ZeDhrGZ1cyevb3TE8War-168" value="" style="html=1;verticalLabelPosition=bottom;align=center;labelBackgroundColor=#ffffff;verticalAlign=top;strokeWidth=2;strokeColor=#0080F0;shadow=0;dashed=0;shape=mxgraph.ios7.icons.mail;" vertex="1" parent="1">
          <mxGeometry x="4490" y="543.5" width="50" height="31.5" as="geometry" />
        </mxCell>
        <mxCell id="ZeDhrGZ1cyevb3TE8War-169" style="edgeStyle=orthogonalEdgeStyle;rounded=0;orthogonalLoop=1;jettySize=auto;html=1;entryX=0;entryY=0.5;entryDx=0;entryDy=0;" edge="1" parent="1" source="ZeDhrGZ1cyevb3TE8War-170">
          <mxGeometry relative="1" as="geometry">
            <mxPoint x="4740" y="374" as="targetPoint" />
          </mxGeometry>
        </mxCell>
        <mxCell id="ZeDhrGZ1cyevb3TE8War-170" value="iOS PN" style="html=1;shadow=0;dashed=0;align=center;verticalAlign=top;shape=mxgraph.arrows2.arrow;dy=0;dx=10;notch=0;fillColor=default;strokeColor=#3399FF;strokeWidth=3;labelPosition=center;verticalLabelPosition=bottom;fontSize=16;" vertex="1" parent="1">
          <mxGeometry x="4420" y="350" width="200" height="50" as="geometry" />
        </mxCell>
        <mxCell id="ZeDhrGZ1cyevb3TE8War-171" value="" style="html=1;verticalLabelPosition=bottom;align=center;labelBackgroundColor=#ffffff;verticalAlign=top;strokeWidth=2;strokeColor=#0080F0;shadow=0;dashed=0;shape=mxgraph.ios7.icons.mail;" vertex="1" parent="1">
          <mxGeometry x="4430" y="358.5" width="50" height="31.5" as="geometry" />
        </mxCell>
        <mxCell id="ZeDhrGZ1cyevb3TE8War-172" value="" style="html=1;verticalLabelPosition=bottom;align=center;labelBackgroundColor=#ffffff;verticalAlign=top;strokeWidth=2;strokeColor=#0080F0;shadow=0;dashed=0;shape=mxgraph.ios7.icons.mail;" vertex="1" parent="1">
          <mxGeometry x="4550" y="358.5" width="50" height="31.5" as="geometry" />
        </mxCell>
        <mxCell id="ZeDhrGZ1cyevb3TE8War-173" value="" style="html=1;verticalLabelPosition=bottom;align=center;labelBackgroundColor=#ffffff;verticalAlign=top;strokeWidth=2;strokeColor=#0080F0;shadow=0;dashed=0;shape=mxgraph.ios7.icons.mail;" vertex="1" parent="1">
          <mxGeometry x="4490" y="358.5" width="50" height="31.5" as="geometry" />
        </mxCell>
        <mxCell id="ZeDhrGZ1cyevb3TE8War-174" style="edgeStyle=orthogonalEdgeStyle;rounded=0;orthogonalLoop=1;jettySize=auto;html=1;entryX=0;entryY=0.5;entryDx=0;entryDy=0;" edge="1" parent="1" source="ZeDhrGZ1cyevb3TE8War-175">
          <mxGeometry relative="1" as="geometry">
            <mxPoint x="4740" y="749.2" as="targetPoint" />
          </mxGeometry>
        </mxCell>
        <mxCell id="ZeDhrGZ1cyevb3TE8War-175" value="SMS Queue" style="html=1;shadow=0;dashed=0;align=center;verticalAlign=top;shape=mxgraph.arrows2.arrow;dy=0;dx=10;notch=0;strokeWidth=3;strokeColor=#3399FF;labelPosition=center;verticalLabelPosition=bottom;fontSize=16;" vertex="1" parent="1">
          <mxGeometry x="4420" y="725.2" width="200" height="50" as="geometry" />
        </mxCell>
        <mxCell id="ZeDhrGZ1cyevb3TE8War-176" value="" style="html=1;verticalLabelPosition=bottom;align=center;labelBackgroundColor=#ffffff;verticalAlign=top;strokeWidth=2;strokeColor=#0080F0;shadow=0;dashed=0;shape=mxgraph.ios7.icons.mail;" vertex="1" parent="1">
          <mxGeometry x="4430" y="733.7" width="50" height="31.5" as="geometry" />
        </mxCell>
        <mxCell id="ZeDhrGZ1cyevb3TE8War-177" value="" style="html=1;verticalLabelPosition=bottom;align=center;labelBackgroundColor=#ffffff;verticalAlign=top;strokeWidth=2;strokeColor=#0080F0;shadow=0;dashed=0;shape=mxgraph.ios7.icons.mail;" vertex="1" parent="1">
          <mxGeometry x="4550" y="733.7" width="50" height="31.5" as="geometry" />
        </mxCell>
        <mxCell id="ZeDhrGZ1cyevb3TE8War-178" value="" style="html=1;verticalLabelPosition=bottom;align=center;labelBackgroundColor=#ffffff;verticalAlign=top;strokeWidth=2;strokeColor=#0080F0;shadow=0;dashed=0;shape=mxgraph.ios7.icons.mail;" vertex="1" parent="1">
          <mxGeometry x="4490" y="733.7" width="50" height="31.5" as="geometry" />
        </mxCell>
        <mxCell id="ZeDhrGZ1cyevb3TE8War-179" style="edgeStyle=orthogonalEdgeStyle;rounded=0;orthogonalLoop=1;jettySize=auto;html=1;entryX=0;entryY=0.5;entryDx=0;entryDy=0;" edge="1" parent="1" source="ZeDhrGZ1cyevb3TE8War-180">
          <mxGeometry relative="1" as="geometry">
            <mxPoint x="4740" y="944" as="targetPoint" />
          </mxGeometry>
        </mxCell>
        <mxCell id="ZeDhrGZ1cyevb3TE8War-180" value="Email queue" style="html=1;shadow=0;dashed=0;align=center;verticalAlign=top;shape=mxgraph.arrows2.arrow;dy=0;dx=10;notch=0;strokeColor=#3399FF;strokeWidth=3;labelPosition=center;verticalLabelPosition=bottom;fontSize=16;" vertex="1" parent="1">
          <mxGeometry x="4420" y="920" width="200" height="50" as="geometry" />
        </mxCell>
        <mxCell id="ZeDhrGZ1cyevb3TE8War-181" value="" style="html=1;verticalLabelPosition=bottom;align=center;labelBackgroundColor=#ffffff;verticalAlign=top;strokeWidth=2;strokeColor=#0080F0;shadow=0;dashed=0;shape=mxgraph.ios7.icons.mail;" vertex="1" parent="1">
          <mxGeometry x="4430" y="928.5" width="50" height="31.5" as="geometry" />
        </mxCell>
        <mxCell id="ZeDhrGZ1cyevb3TE8War-182" value="" style="html=1;verticalLabelPosition=bottom;align=center;labelBackgroundColor=#ffffff;verticalAlign=top;strokeWidth=2;strokeColor=#0080F0;shadow=0;dashed=0;shape=mxgraph.ios7.icons.mail;" vertex="1" parent="1">
          <mxGeometry x="4550" y="928.5" width="50" height="31.5" as="geometry" />
        </mxCell>
        <mxCell id="ZeDhrGZ1cyevb3TE8War-183" value="" style="html=1;verticalLabelPosition=bottom;align=center;labelBackgroundColor=#ffffff;verticalAlign=top;strokeWidth=2;strokeColor=#0080F0;shadow=0;dashed=0;shape=mxgraph.ios7.icons.mail;" vertex="1" parent="1">
          <mxGeometry x="4490" y="928.5" width="50" height="31.5" as="geometry" />
        </mxCell>
        <mxCell id="ZeDhrGZ1cyevb3TE8War-184" value="" style="sketch=0;pointerEvents=1;shadow=0;dashed=0;html=1;strokeColor=none;fillColor=#505050;labelPosition=center;verticalLabelPosition=bottom;verticalAlign=top;outlineConnect=0;align=center;shape=mxgraph.office.servers.server_farm;fillColor=#7FBA42;" vertex="1" parent="1">
          <mxGeometry x="4117.5" y="614" width="70" height="80" as="geometry" />
        </mxCell>
        <mxCell id="ZeDhrGZ1cyevb3TE8War-185" style="edgeStyle=orthogonalEdgeStyle;rounded=0;orthogonalLoop=1;jettySize=auto;html=1;entryX=0.5;entryY=0;entryDx=0;entryDy=0;" edge="1" parent="1" source="ZeDhrGZ1cyevb3TE8War-186" target="ZeDhrGZ1cyevb3TE8War-204">
          <mxGeometry relative="1" as="geometry" />
        </mxCell>
        <mxCell id="ZeDhrGZ1cyevb3TE8War-186" value="Notofications servers" style="rounded=1;whiteSpace=wrap;html=1;verticalAlign=bottom;fontSize=16;fillColor=none;strokeColor=#3399FF;strokeWidth=2;dashed=1;" vertex="1" parent="1">
          <mxGeometry x="4100" y="600" width="105" height="144" as="geometry" />
        </mxCell>
        <mxCell id="ZeDhrGZ1cyevb3TE8War-187" value="Service 2" style="rounded=1;whiteSpace=wrap;html=1;" vertex="1" parent="1">
          <mxGeometry x="3800" y="630" width="120" height="60" as="geometry" />
        </mxCell>
        <mxCell id="ZeDhrGZ1cyevb3TE8War-188" value="Service 1" style="rounded=1;whiteSpace=wrap;html=1;" vertex="1" parent="1">
          <mxGeometry x="3800" y="500" width="120" height="60" as="geometry" />
        </mxCell>
        <mxCell id="ZeDhrGZ1cyevb3TE8War-189" value="Service N" style="rounded=1;whiteSpace=wrap;html=1;" vertex="1" parent="1">
          <mxGeometry x="3800" y="770" width="120" height="60" as="geometry" />
        </mxCell>
        <mxCell id="ZeDhrGZ1cyevb3TE8War-190" value="Service 2" style="rounded=1;whiteSpace=wrap;html=1;" vertex="1" parent="1">
          <mxGeometry x="3800" y="630" width="120" height="60" as="geometry" />
        </mxCell>
        <mxCell id="ZeDhrGZ1cyevb3TE8War-191" value="Service 1" style="rounded=1;whiteSpace=wrap;html=1;" vertex="1" parent="1">
          <mxGeometry x="3800" y="500" width="120" height="60" as="geometry" />
        </mxCell>
        <mxCell id="ZeDhrGZ1cyevb3TE8War-192" style="rounded=0;orthogonalLoop=1;jettySize=auto;html=1;entryX=0.011;entryY=0.606;entryDx=0;entryDy=0;entryPerimeter=0;" edge="1" parent="1" source="ZeDhrGZ1cyevb3TE8War-193" target="ZeDhrGZ1cyevb3TE8War-186">
          <mxGeometry relative="1" as="geometry" />
        </mxCell>
        <mxCell id="ZeDhrGZ1cyevb3TE8War-193" value="Service N" style="rounded=1;whiteSpace=wrap;html=1;" vertex="1" parent="1">
          <mxGeometry x="3800" y="770" width="120" height="60" as="geometry" />
        </mxCell>
        <mxCell id="ZeDhrGZ1cyevb3TE8War-194" style="rounded=0;orthogonalLoop=1;jettySize=auto;html=1;entryX=0;entryY=0.25;entryDx=0;entryDy=0;" edge="1" parent="1" source="ZeDhrGZ1cyevb3TE8War-191" target="ZeDhrGZ1cyevb3TE8War-186">
          <mxGeometry relative="1" as="geometry" />
        </mxCell>
        <mxCell id="ZeDhrGZ1cyevb3TE8War-195" style="edgeStyle=orthogonalEdgeStyle;rounded=0;orthogonalLoop=1;jettySize=auto;html=1;entryX=0.008;entryY=0.428;entryDx=0;entryDy=0;entryPerimeter=0;" edge="1" parent="1" source="ZeDhrGZ1cyevb3TE8War-190" target="ZeDhrGZ1cyevb3TE8War-186">
          <mxGeometry relative="1" as="geometry" />
        </mxCell>
        <mxCell id="ZeDhrGZ1cyevb3TE8War-196" value="DB" style="rounded=1;whiteSpace=wrap;html=1;verticalAlign=bottom;fontSize=16;fillColor=none;strokeColor=#3399FF;strokeWidth=2;" vertex="1" parent="1">
          <mxGeometry x="4102.5" y="1010" width="100" height="110" as="geometry" />
        </mxCell>
        <mxCell id="ZeDhrGZ1cyevb3TE8War-197" value="" style="sketch=0;shadow=0;dashed=0;html=1;strokeColor=none;fillColor=#3399FF;labelPosition=center;verticalLabelPosition=bottom;verticalAlign=top;outlineConnect=0;align=center;shape=mxgraph.office.databases.database_availability_group;" vertex="1" parent="1">
          <mxGeometry x="4122.5" y="1030" width="60" height="60" as="geometry" />
        </mxCell>
        <mxCell id="ZeDhrGZ1cyevb3TE8War-198" value="DB" style="rounded=1;whiteSpace=wrap;html=1;verticalAlign=bottom;fontSize=16;fillColor=none;strokeColor=#3399FF;strokeWidth=2;" vertex="1" parent="1">
          <mxGeometry x="4102.5" y="1010" width="100" height="110" as="geometry" />
        </mxCell>
        <mxCell id="ZeDhrGZ1cyevb3TE8War-199" value="" style="sketch=0;shadow=0;dashed=0;html=1;strokeColor=none;fillColor=#3399FF;labelPosition=center;verticalLabelPosition=bottom;verticalAlign=top;outlineConnect=0;align=center;shape=mxgraph.office.databases.database_availability_group;" vertex="1" parent="1">
          <mxGeometry x="4122.5" y="1030" width="60" height="60" as="geometry" />
        </mxCell>
        <mxCell id="ZeDhrGZ1cyevb3TE8War-200" value="" style="outlineConnect=0;dashed=0;verticalLabelPosition=bottom;verticalAlign=top;align=center;html=1;shape=mxgraph.aws3.cache_node;fillColor=#2E73B8;gradientColor=none;" vertex="1" parent="1">
          <mxGeometry x="4107.5" y="810.2" width="60" height="60" as="geometry" />
        </mxCell>
        <mxCell id="ZeDhrGZ1cyevb3TE8War-201" value="" style="outlineConnect=0;dashed=0;verticalLabelPosition=bottom;verticalAlign=top;align=center;html=1;shape=mxgraph.aws3.cache_node;fillColor=#2E73B8;gradientColor=none;" vertex="1" parent="1">
          <mxGeometry x="4117.5" y="840.2" width="60" height="60" as="geometry" />
        </mxCell>
        <mxCell id="ZeDhrGZ1cyevb3TE8War-202" value="" style="outlineConnect=0;dashed=0;verticalLabelPosition=bottom;verticalAlign=top;align=center;html=1;shape=mxgraph.aws3.cache_node;fillColor=#2E73B8;gradientColor=none;" vertex="1" parent="1">
          <mxGeometry x="4127.5" y="870.2" width="60" height="60" as="geometry" />
        </mxCell>
        <mxCell id="ZeDhrGZ1cyevb3TE8War-203" style="edgeStyle=orthogonalEdgeStyle;rounded=0;orthogonalLoop=1;jettySize=auto;html=1;" edge="1" parent="1" source="ZeDhrGZ1cyevb3TE8War-204" target="ZeDhrGZ1cyevb3TE8War-196">
          <mxGeometry relative="1" as="geometry" />
        </mxCell>
        <mxCell id="ZeDhrGZ1cyevb3TE8War-204" value="" style="rounded=1;whiteSpace=wrap;html=1;verticalAlign=bottom;fontSize=16;fillColor=none;strokeColor=#3399FF;strokeWidth=2;" vertex="1" parent="1">
          <mxGeometry x="4097.5" y="800.2" width="110" height="140" as="geometry" />
        </mxCell>
        <mxCell id="ZeDhrGZ1cyevb3TE8War-205" style="rounded=0;orthogonalLoop=1;jettySize=auto;html=1;entryX=0;entryY=0.5;entryDx=0;entryDy=0;entryPerimeter=0;" edge="1" parent="1" source="ZeDhrGZ1cyevb3TE8War-186" target="ZeDhrGZ1cyevb3TE8War-170">
          <mxGeometry relative="1" as="geometry" />
        </mxCell>
        <mxCell id="ZeDhrGZ1cyevb3TE8War-206" style="rounded=0;orthogonalLoop=1;jettySize=auto;html=1;entryX=-0.016;entryY=0.709;entryDx=0;entryDy=0;entryPerimeter=0;" edge="1" parent="1" source="ZeDhrGZ1cyevb3TE8War-186" target="ZeDhrGZ1cyevb3TE8War-165">
          <mxGeometry relative="1" as="geometry" />
        </mxCell>
        <mxCell id="ZeDhrGZ1cyevb3TE8War-207" style="rounded=0;orthogonalLoop=1;jettySize=auto;html=1;entryX=0;entryY=0.5;entryDx=0;entryDy=0;entryPerimeter=0;" edge="1" parent="1" source="ZeDhrGZ1cyevb3TE8War-186" target="ZeDhrGZ1cyevb3TE8War-175">
          <mxGeometry relative="1" as="geometry" />
        </mxCell>
        <mxCell id="ZeDhrGZ1cyevb3TE8War-208" style="rounded=0;orthogonalLoop=1;jettySize=auto;html=1;entryX=0;entryY=0.5;entryDx=0;entryDy=0;entryPerimeter=0;" edge="1" parent="1" source="ZeDhrGZ1cyevb3TE8War-186" target="ZeDhrGZ1cyevb3TE8War-180">
          <mxGeometry relative="1" as="geometry" />
        </mxCell>
        <mxCell id="ZeDhrGZ1cyevb3TE8War-209" value="retry on error" style="edgeStyle=orthogonalEdgeStyle;rounded=0;orthogonalLoop=1;jettySize=auto;html=1;entryX=0.146;entryY=0.013;entryDx=0;entryDy=0;entryPerimeter=0;fontSize=16;labelPosition=center;verticalLabelPosition=top;align=center;verticalAlign=bottom;" edge="1" parent="1" source="ZeDhrGZ1cyevb3TE8War-153" target="ZeDhrGZ1cyevb3TE8War-170">
          <mxGeometry relative="1" as="geometry">
            <Array as="points">
              <mxPoint x="4800" y="210" />
              <mxPoint x="4449" y="210" />
            </Array>
          </mxGeometry>
        </mxCell>
      </root>
    </mxGraphModel>
  </diagram>
</mxfile>
